<?xml version="1.0" encoding="UTF-8"?>
<!DOCTYPE svg PUBLIC "-//W3C//DTD SVG 1.1//EN" "http://www.w3.org/Graphics/SVG/1.1/DTD/svg11.dtd">
<!-- Creator: CorelDRAW 2021 (64-Bit) -->
<svg xmlns="http://www.w3.org/2000/svg" xml:space="preserve" width="10in" height="10in" version="1.1" style="shape-rendering:geometricPrecision; text-rendering:geometricPrecision; image-rendering:optimizeQuality; fill-rule:evenodd; clip-rule:evenodd"
viewBox="0 0 10000 10000"
 xmlns:xlink="http://www.w3.org/1999/xlink"
 xmlns:xodm="http://www.corel.com/coreldraw/odm/2003">
 <defs>
  <style type="text/css">
   <![CDATA[
    .fil0 {fill:#B77A1C}
    .fil1 {fill:white}
   ]]>
  </style>
 </defs>
 <g id="Layer_x0020_1">
  <metadata id="CorelCorpID_0Corel-Layer"/>
  <circle class="fil0" cx="5000" cy="5000" r="3967.99"/>
  <path class="fil1" d="M3872.1 3046.61l0 179.81c-298.67,0 -508.2,20.69 -713.11,226.8 -147.11,147.97 -251.32,323.05 -251.32,549.65l0 2313.01c0,107.78 37.93,238.92 73.41,310.72 38.96,78.82 95.9,164.19 157.24,226.89l101.93 86.06c21.59,15.81 39,24.6 59.71,38.37 21.82,14.5 35.24,22.53 62.54,35.54 75.81,36.12 206.41,78.86 313.45,78.86l2648.1 0c246.27,0 474.92,-144.31 618.95,-337.31 83.63,-112.06 149.33,-284.56 149.33,-439.14l0 -2321.18c0,-301.01 -218.34,-581.11 -490.39,-702.89 -157.76,-70.62 -297.23,-65.39 -474.04,-65.39 0,-125.83 20.17,-209.72 -50.64,-276.29 -28.16,-26.47 -63.66,-40.09 -99.74,-42.46l-23.11 0c-78.76,5.15 -153.44,62.45 -153.44,155.29l0 163.46 -1601.94 0c0,-132.26 30.23,-318.75 -171.63,-318.75 -44.94,0 -80.07,19.35 -104.65,42.46 -19.65,18.48 -50.64,61.88 -50.64,96.48zm-625.29 1127.52l3508.14 0c61.29,-396.93 -221.24,-677.69 -630.03,-612.41 -15.09,179.06 62.85,463.92 -165.3,462.02 -228.15,-1.91 -143.19,-286.37 -163.59,-463.54l-1590.73 -1.54c-22.81,164.51 66.65,460.8 -162.11,464.97 -92.39,1.68 -159.65,-67.38 -165.55,-149 -6.93,-95.78 10.94,-225.99 -4.22,-315.71 -234.46,-2.34 -354.13,6.56 -487.23,134.92 -106.4,102.61 -176.69,274.63 -139.37,480.29zm2390.7 1953.76c0,82.31 70.74,163.46 155.29,163.46l343.28 0c122.27,0 213.45,-156.85 112.35,-275.82 -17.4,-20.48 -62,-51.11 -96.01,-51.11l-359.62 0c-85.56,0 -155.29,77.73 -155.29,163.46zm0 -964.43c0,83.94 69.87,163.46 155.29,163.46l343.28 0c203.63,0 203.63,-326.93 0,-326.93l-343.28 0c-85.56,0 -155.29,77.73 -155.29,163.46zm-1928.87 0c0,87.23 69.9,163.46 155.29,163.46l343.28 0c203.03,0 203.03,-326.93 0,-326.93l-343.28 0c-85.39,0 -155.29,76.23 -155.29,163.46zm964.43 -8.17c0,100.94 71.25,171.64 155.3,171.64l343.27 0c202.46,0 202.46,-326.93 0,-326.93l-343.27 0c-82.57,0 -155.3,74.07 -155.3,155.29zm0 964.43c0,100.94 71.25,171.63 155.3,171.63l343.27 0c199.68,0 205.27,-326.93 0,-326.93l-359.62 0c-60.26,0 -138.95,74.8 -138.95,155.29zm-964.43 0c0,99.74 70.09,171.63 155.29,171.63l343.28 0c200.5,0 205.47,-326.93 0,-326.93l-359.62 0c-60.26,0 -138.94,74.8 -138.94,155.29z"/>
 </g>
</svg>
