<?xml version="1.0" encoding="UTF-8"?>
<!DOCTYPE svg PUBLIC "-//W3C//DTD SVG 1.1//EN" "http://www.w3.org/Graphics/SVG/1.1/DTD/svg11.dtd">
<!-- Creator: CorelDRAW 2021 (64-Bit) -->
<svg xmlns="http://www.w3.org/2000/svg" xml:space="preserve" width="10in" height="10in" version="1.1" style="shape-rendering:geometricPrecision; text-rendering:geometricPrecision; image-rendering:optimizeQuality; fill-rule:evenodd; clip-rule:evenodd"
viewBox="0 0 10000 10000"
 xmlns:xlink="http://www.w3.org/1999/xlink"
 xmlns:xodm="http://www.corel.com/coreldraw/odm/2003">
 <defs>
  <style type="text/css">
   <![CDATA[
    .str0 {stroke:white;stroke-width:281.25;stroke-miterlimit:2.61313}
    .fil1 {fill:none}
    .fil0 {fill:#B77A1C}
    .fil2 {fill:white}
   ]]>
  </style>
 </defs>
 <g id="Layer_x0020_1">
  <metadata id="CorelCorpID_0Corel-Layer"/>
  <circle class="fil0" cx="5000" cy="5000" r="3967.99"/>
  <path class="fil1 str0" d="M2874.09 4941.87c0,269.69 6.54,313.19 60.16,570.96 37.73,181.35 131.26,390.02 222.6,549.71 80.94,141.5 227.37,332.15 337.91,442.69 25.78,25.78 41.81,34.98 66.61,57.95 368.39,341.29 876.35,562.72 1380.49,562.72 269.69,0 313.19,-6.54 570.96,-60.16 60.34,-12.56 136.24,-38.02 198.31,-59.13 116.25,-39.54 246.46,-103.45 351.4,-163.48 124.35,-71.13 271.59,-179.04 371.87,-275.87 25.44,-24.56 44.03,-35.25 70.83,-62.04 25.78,-25.78 34.98,-41.81 57.95,-66.61 26.06,-28.13 38.44,-38.78 63.3,-69.57 56.61,-70.13 114.73,-141.16 162.51,-219.48 104.42,-171.17 191.04,-327.77 245.57,-526.74 53.2,-194.15 84.42,-378.33 91.35,-560.61l0 -154.21c-7.78,-202.28 -46.45,-404.98 -119.29,-619.15 -23.08,-67.87 -48.68,-117.97 -75.22,-182.22 -32.41,-78.46 -89.57,-173.54 -136.03,-245.97l-53.2 -79.67c-108.1,-162 -284.87,-344.93 -442.03,-463.14 -177.75,-133.7 -370.69,-248.48 -582.76,-322.41 -34.92,-12.17 -60.71,-20.72 -94.56,-30 -194.15,-53.2 -378.33,-84.42 -560.61,-91.35l-154.21 0c-202.28,7.78 -404.98,46.45 -619.15,119.29 -279.28,94.98 -585.06,292.35 -794.09,501.39l-121.25 136.19c-20.22,25.06 -34.54,40.83 -55.66,68.91 -22.96,30.52 -34.83,42.86 -56.75,76.12 -19.83,30.09 -30.61,42.51 -50.1,74.46 -117.86,193.21 -227.06,405.77 -275.34,629.84 -31.59,146.59 -61.57,286.79 -61.57,461.6z"/>
  <path class="fil2" d="M4873.54 3600.76l0 1395.87c0,91.75 92.24,143.67 149.5,186.59 66.85,50.11 125.63,94.18 192.06,144.04l516.28 387.24c49.43,37.16 63.62,56.73 134.22,56.73 73.03,0 145.13,-64.73 145.13,-137.49 0,-104.52 -27.31,-114.11 -125.48,-187.69l-542.49 -406.85c-28.77,-21.56 -50.91,-38.2 -78.56,-58.94 -28.61,-21.46 -53.95,-43.51 -85.12,-60 0,-185.87 0,-850.99 0,-1036.86 0,-219.87 49.22,-427.75 -168.04,-427.75 -72.76,0 -137.49,72.1 -137.49,145.13z"/>
 </g>
</svg>
